{
  "accessors": [
    {
      "bufferView": 3,
      "componentType": 5126,
      "count": 2974,
      "max": [
        0.07652538269758224,
        0.387376606464386,
        2.338773727416992
      ],
      "min": [
        -0.07652538269758224,
        -0.46834397315979004,
        -2.4297497272491455
      ],
      "type": "VEC3"
    },
    {
      "bufferView": 3,
      "byteOffset": 35688,
      "componentType": 5126,
      "count": 2974,
      "max": [
        1.0,
        1.0,
        1.0
      ],
      "min": [
        -1.0,
        -1.0,
        -1.0
      ],
      "type": "VEC3"
    },
    {
      "bufferView": 2,
      "componentType": 5126,
      "count": 2974,
      "max": [
        0.5892197489738464,
        0.9917269349098206
      ],
      "min": [
        0.006228342652320862,
        0.05887243524193764
      ],
      "type": "VEC2"
    },
    {
      "bufferView": 1,
      "componentType": 5125,
      "count": 10338,
      "type": "SCALAR"
    },
    {
      "bufferView": 3,
      "byteOffset": 71376,
      "componentType": 5126,
      "count": 184,
      "max": [
        0.07410440593957901,
        0.23205555975437164,
        0.6440719366073608
      ],
      "min": [
        -0.07410440593957901,
        -0.18615208566188812,
        -1.4278773069381714
      ],
      "type": "VEC3"
    },
    {
      "bufferView": 3,
      "byteOffset": 73584,
      "componentType": 5126,
      "count": 184,
      "max": [
        0.9995111227035522,
        0.766764223575592,
        0.8525270223617554
      ],
      "min": [
        -0.9995111227035522,
        -0.9406327605247498,
        -0.33191534876823425
      ],
      "type": "VEC3"
    },
    {
      "bufferView": 2,
      "byteOffset": 23792,
      "componentType": 5126,
      "count": 184,
      "max": [
        0.4071619510650635,
        0.5299124717712402
      ],
      "min": [
        0.330203652381897,
        0.34117287397384644
      ],
      "type": "VEC2"
    },
    {
      "bufferView": 1,
      "byteOffset": 41352,
      "componentType": 5125,
      "count": 714,
      "type": "SCALAR"
    },
    {
      "bufferView": 3,
      "byteOffset": 75792,
      "componentType": 5126,
      "count": 134,
      "max": [
        0.058750949800014496,
        0.26024705171585083,
        -0.274627149105072
      ],
      "min": [
        -0.058750949800014496,
        0.08178756386041641,
        -0.6390495300292969
      ],
      "type": "VEC3"
    },
    {
      "bufferView": 3,
      "byteOffset": 77400,
      "componentType": 5126,
      "count": 134,
      "max": [
        1.0,
        0.023444173857569695,
        0.9997966289520264
      ],
      "min": [
        -1.0,
        -1.0,
        -0.05478338524699211
      ],
      "type": "VEC3"
    },
    {
      "bufferView": 2,
      "byteOffset": 25264,
      "componentType": 5126,
      "count": 134,
      "max": [
        0.16388435661792755,
        0.2216656506061554
      ],
      "min": [
        0.05017680302262306,
        0.05887243524193764
      ],
      "type": "VEC2"
    },
    {
      "bufferView": 1,
      "byteOffset": 44208,
      "componentType": 5125,
      "count": 402,
      "type": "SCALAR"
    },
    {
      "bufferView": 3,
      "byteOffset": 79008,
      "componentType": 5126,
      "count": 3140,
      "max": [
        0.08130229264497757,
        0.39105379581451416,
        2.34377384185791
      ],
      "min": [
        -0.08130229264497757,
        -0.4733061194419861,
        -2.4343762397766113
      ],
      "type": "VEC3"
    },
    {
      "bufferView": 3,
      "byteOffset": 116688,
      "componentType": 5126,
      "count": 3140,
      "max": [
        0.9999998807907104,
        1.0,
        1.0
      ],
      "min": [
        -0.9999998807907104,
        -1.0,
        -1.0
      ],
      "type": "VEC3"
    },
    {
      "bufferView": 2,
      "byteOffset": 26336,
      "componentType": 5126,
      "count": 3140,
      "max": [
        0.5892197489738464,
        0.9917269349098206
      ],
      "min": [
        0.006228342652320862,
        0.05887243524193764
      ],
      "type": "VEC2"
    },
    {
      "bufferView": 1,
      "byteOffset": 45816,
      "componentType": 5125,
      "count": 11124,
      "type": "SCALAR"
    },
    {
      "bufferView": 5,
      "componentType": 5126,
      "count": 7,
      "max": [
        100.0,
        2.220446049250313e-16,
        0.0,
        0.0,
        7.105427357601002e-15,
        100.0,
        0.0,
        0.0,
        6.516827397717861e-07,
        1.0,
        100.0,
        0.0,
        3.58211963202848e-07,
        2.244922399520874,
        0.5496723651885986,
        1.0
      ],
      "min": [
        1.0,
        -7.105427357601002e-15,
        -6.516827397717861e-07,
        0.0,
        -3.2584136988589307e-07,
        6.123232277692369e-17,
        -1.0,
        0.0,
        -2.220446049250313e-16,
        0.0,
        6.123234262925839e-17,
        0.0,
        0.0,
        -0.3590918779373169,
        0.0,
        1.0
      ],
      "type": "MAT4"
    },
    {
      "bufferView": 0,
      "componentType": 5123,
      "count": 2974,
      "type": "VEC4"
    },
    {
      "bufferView": 4,
      "componentType": 5126,
      "count": 2974,
      "max": [
        1.0,
        0.0,
        0.0,
        0.0
      ],
      "min": [
        1.0,
        0.0,
        0.0,
        0.0
      ],
      "type": "VEC4"
    },
    {
      "bufferView": 0,
      "byteOffset": 23792,
      "componentType": 5123,
      "count": 184,
      "type": "VEC4"
    },
    {
      "bufferView": 4,
      "byteOffset": 47584,
      "componentType": 5126,
      "count": 184,
      "max": [
        1.0,
        0.0,
        0.0,
        0.0
      ],
      "min": [
        1.0,
        0.0,
        0.0,
        0.0
      ],
      "type": "VEC4"
    },
    {
      "bufferView": 0,
      "byteOffset": 25264,
      "componentType": 5123,
      "count": 134,
      "type": "VEC4"
    },
    {
      "bufferView": 4,
      "byteOffset": 50528,
      "componentType": 5126,
      "count": 134,
      "max": [
        1.0,
        0.0,
        0.0,
        0.0
      ],
      "min": [
        1.0,
        0.0,
        0.0,
        0.0
      ],
      "type": "VEC4"
    },
    {
      "bufferView": 0,
      "byteOffset": 26336,
      "componentType": 5123,
      "count": 3140,
      "type": "VEC4"
    },
    {
      "bufferView": 4,
      "byteOffset": 52672,
      "componentType": 5126,
      "count": 3140,
      "max": [
        1.0,
        0.0,
        0.0,
        0.0
      ],
      "min": [
        1.0,
        0.0,
        0.0,
        0.0
      ],
      "type": "VEC4"
    },
    {
      "bufferView": 6,
      "componentType": 5126,
      "count": 32,
      "max": [
        0.8333333134651184
      ],
      "min": [
        0.0416666679084301
      ],
      "type": "SCALAR"
    },
    {
      "bufferView": 7,
      "componentType": 5126,
      "count": 32,
      "max": [
        -0.702360987663269,
        0.08178656548261642,
        2.613132892292924e-07,
        0.7071067094802856
      ],
      "min": [
        -0.7071068286895752,
        -1.994960712181637e-07,
        -0.08178650587797165,
        0.702360987663269
      ],
      "type": "VEC4"
    },
    {
      "bufferView": 6,
      "byteOffset": 128,
      "componentType": 5126,
      "count": 36,
      "max": [
        0.8333333134651184
      ],
      "min": [
        0.0416666679084301
      ],
      "type": "SCALAR"
    },
    {
      "bufferView": 7,
      "byteOffset": 512,
      "componentType": 5126,
      "count": 36,
      "max": [
        0.4226182699203491,
        -9.874591455627524e-08,
        4.440892627896218e-16,
        1.0
      ],
      "min": [
        -2.1680560026714505e-15,
        -1.1920928955078125e-07,
        -8.732648382192565e-08,
        0.9063078165054321
      ],
      "type": "VEC4"
    }
  ],
  "animations": [
    {
      "channels": [
        {
          "sampler": 0,
          "target": {
            "node": 15,
            "path": "rotation"
          }
        },
        {
          "sampler": 1,
          "target": {
            "node": 17,
            "path": "rotation"
          }
        }
      ],
      "name": "Scene",
      "samplers": [
        {
          "input": 25,
          "interpolation": "LINEAR",
          "output": 26
        },
        {
          "input": 27,
          "interpolation": "LINEAR",
          "output": 28
        }
      ]
    }
  ],
  "asset": {
    "extras": {
      "author": "TheRulerMeasure (https://sketchfab.com/TheRulerMeasure)",
      "license": "CC-BY-4.0 (http://creativecommons.org/licenses/by/4.0/)",
      "source": "https://sketchfab.com/3d-models/cartoon-double-barrel-shotgun-9a5d70ba318641f7afcf35471b33d5ae",
      "title": "Cartoon Double Barrel Shotgun"
    },
    "generator": "Sketchfab-13.74.0",
    "version": "2.0"
  },
  "bufferViews": [
    {
      "buffer": 0,
      "byteLength": 51456,
      "byteStride": 8,
      "name": "shortBufferViews",
      "target": 34962
    },
    {
      "buffer": 0,
      "byteLength": 90312,
      "byteOffset": 51456,
      "name": "floatBufferViews",
      "target": 34963
    },
    {
      "buffer": 0,
      "byteLength": 51456,
      "byteOffset": 141768,
      "byteStride": 8,
      "name": "floatBufferViews",
      "target": 34962
    },
    {
      "buffer": 0,
      "byteLength": 154368,
      "byteOffset": 193224,
      "byteStride": 12,
      "name": "floatBufferViews",
      "target": 34962
    },
    {
      "buffer": 0,
      "byteLength": 102912,
      "byteOffset": 347592,
      "byteStride": 16,
      "name": "floatBufferViews",
      "target": 34962
    },
    {
      "buffer": 0,
      "byteLength": 448,
      "byteOffset": 450504,
      "name": "floatBufferViews"
    },
    {
      "buffer": 0,
      "byteLength": 272,
      "byteOffset": 450952,
      "name": "floatBufferViews"
    },
    {
      "buffer": 0,
      "byteLength": 1088,
      "byteOffset": 451224,
      "byteStride": 16,
      "name": "floatBufferViews"
    }
  ],
  "buffers": [
    {
      "byteLength": 452312,
      "uri": "scene.bin"
    }
  ],
  "extensionsUsed": [
    "KHR_materials_unlit"
  ],
  "images": [
    {
      "uri": "textures/olympia_baseColor.png"
    }
  ],
  "materials": [
    {
      "doubleSided": true,
      "extensions": {
        "KHR_materials_unlit": {}
      },
      "name": "olympia",
      "pbrMetallicRoughness": {
        "baseColorTexture": {
          "index": 0
        },
        "metallicFactor": 0.0
      }
    },
    {
      "doubleSided": true,
      "extensions": {
        "KHR_materials_unlit": {}
      },
      "name": "olympia_tanted",
      "pbrMetallicRoughness": {
        "baseColorTexture": {
          "index": 0
        },
        "metallicFactor": 0.0
      }
    },
    {
      "doubleSided": true,
      "extensions": {
        "KHR_materials_unlit": {}
      },
      "name": "olympia_rust",
      "pbrMetallicRoughness": {
        "baseColorTexture": {
          "index": 0
        },
        "metallicFactor": 0.0
      }
    },
    {
      "extensions": {
        "KHR_materials_unlit": {}
      },
      "name": "svart_utline",
      "pbrMetallicRoughness": {
        "baseColorFactor": [
          0.0,
          0.0,
          0.0,
          1.0
        ],
        "metallicFactor": 0.0
      }
    }
  ],
  "meshes": [
    {
      "name": "olympia_olympia_0",
      "primitives": [
        {
          "attributes": {
            "JOINTS_0": 17,
            "NORMAL": 1,
            "POSITION": 0,
            "TEXCOORD_0": 2,
            "WEIGHTS_0": 18
          },
          "indices": 3,
          "material": 0,
          "mode": 4
        }
      ]
    },
    {
      "name": "olympia_olympia_tanted_0",
      "primitives": [
        {
          "attributes": {
            "JOINTS_0": 19,
            "NORMAL": 5,
            "POSITION": 4,
            "TEXCOORD_0": 6,
            "WEIGHTS_0": 20
          },
          "indices": 7,
          "material": 1,
          "mode": 4
        }
      ]
    },
    {
      "name": "olympia_olympia_rust_0",
      "primitives": [
        {
          "attributes": {
            "JOINTS_0": 21,
            "NORMAL": 9,
            "POSITION": 8,
            "TEXCOORD_0": 10,
            "WEIGHTS_0": 22
          },
          "indices": 11,
          "material": 2,
          "mode": 4
        }
      ]
    },
    {
      "name": "olympia_svart_utline_0",
      "primitives": [
        {
          "attributes": {
            "JOINTS_0": 23,
            "NORMAL": 13,
            "POSITION": 12,
            "TEXCOORD_0": 14,
            "WEIGHTS_0": 24
          },
          "indices": 15,
          "material": 3,
          "mode": 4
        }
      ]
    }
  ],
  "nodes": [
    {
      "children": [
        1
      ],
      "matrix": [
        0.2852582335472107,
        0.0,
        0.0,
        0.0,
        0.0,
        6.334005176960271e-17,
        -0.2852582335472107,
        0.0,
        0.0,
        0.2852582335472107,
        6.334005176960271e-17,
        0.0,
        0.0,
        0.0,
        0.0,
        1.0
      ],
      "name": "Sketchfab_model"
    },
    {
      "children": [
        2
      ],
      "matrix": [
        0.009999999776482582,
        0.0,
        0.0,
        0.0,
        0.0,
        0.0,
        0.009999999776482582,
        0.0,
        0.0,
        -0.009999999776482582,
        0.0,
        0.0,
        0.0,
        0.0,
        0.0,
        1.0
      ],
      "name": "531c7ea3dce84944a5cb615212397ba4.fbx"
    },
    {
      "children": [
        3
      ],
      "name": "Object_2"
    },
    {
      "children": [
        4,
        5
      ],
      "name": "RootNode"
    },
    {
      "name": "olympia",
      "rotation": [
        -0.7071068286895752,
        0.0,
        0.0,
        0.7071067094802856
      ],
      "scale": [
        100.0,
        100.0,
        100.0
      ]
    },
    {
      "children": [
        6
      ],
      "name": "Rig_olympia",
      "rotation": [
        -0.7071068286895752,
        0.0,
        0.0,
        0.7071067094802856
      ],
      "scale": [
        100.0,
        100.0,
        100.0
      ]
    },
    {
      "children": [
        7,
        9,
        10,
        11,
        12,
        8
      ],
      "name": "Object_6"
    },
    {
      "children": [
        13
      ],
      "name": "_rootJoint"
    },
    {
      "matrix": [
        100.0,
        0.0,
        0.0,
        0.0,
        0.0,
        6.123233995736766e-15,
        -100.0,
        0.0,
        0.0,
        100.0,
        6.123233995736766e-15,
        0.0,
        0.0,
        0.0,
        0.0,
        1.0
      ],
      "name": "Object_8"
    },
    {
      "mesh": 0,
      "name": "Object_9",
      "skin": 0
    },
    {
      "mesh": 1,
      "name": "Object_10",
      "skin": 0
    },
    {
      "mesh": 2,
      "name": "Object_11",
      "skin": 0
    },
    {
      "mesh": 3,
      "name": "Object_12",
      "skin": 0
    },
    {
      "children": [
        14
      ],
      "name": "root_00",
      "rotation": [
        0.7071068286895752,
        0.0,
        0.0,
        0.7071067094802856
      ]
    },
    {
      "children": [
        15,
        17
      ],
      "name": "DEF_stock_01",
      "rotation": [
        0.7071068286895752,
        -3.090862676913275e-08,
        -3.090862321641907e-08,
        0.7071067094802856
      ],
      "translation": [
        -2.0106730459068653e-16,
        0.09447348117828369,
        -2.244922399520874
      ]
    },
    {
      "children": [
        16
      ],
      "name": "DEF_eject_02",
      "rotation": [
        -0.7071068286895752,
        -1.9949608542901842e-07,
        2.613132892292924e-07,
        0.7071067094802856
      ],
      "translation": [
        -2.313367453155024e-08,
        1.6952500343322754,
        -0.2646183967590332
      ]
    },
    {
      "name": "DEF_eject_end_04",
      "rotation": [
        -1.262177448353619e-29,
        -1.0587911840678754e-22,
        9.955285355080065e-30,
        1.0
      ],
      "translation": [
        0.0,
        0.2999999523162842,
        0.0
      ]
    },
    {
      "children": [
        18
      ],
      "name": "DEF_barrels_03",
      "rotation": [
        6.617445531512946e-23,
        -1.1920928955078125e-07,
        4.440892627896218e-16,
        1.0
      ],
      "translation": [
        -7.89632981224031e-09,
        1.9971261024475098,
        -0.09032347798347473
      ]
    },
    {
      "name": "DEF_barrels_end_05",
      "rotation": [
        2.6469779601696886e-23,
        5.125743244100665e-24,
        -9.466330862652142e-30,
        1.0
      ],
      "translation": [
        1.3234889800848443e-23,
        0.9999998807907104,
        0.0
      ]
    }
  ],
  "samplers": [
    {
      "magFilter": 9729,
      "minFilter": 9987,
      "wrapS": 10497,
      "wrapT": 10497
    }
  ],
  "scene": 0,
  "scenes": [
    {
      "name": "Sketchfab_Scene",
      "nodes": [
        0
      ]
    }
  ],
  "skins": [
    {
      "inverseBindMatrices": 16,
      "joints": [
        7,
        13,
        14,
        15,
        16,
        17,
        18
      ],
      "skeleton": 7
    }
  ],
  "textures": [
    {
      "sampler": 0,
      "source": 0
    }
  ]
}
